<?xml version="1.0" encoding="UTF-8"?>
<svg width="18px" height="18px" viewBox="0 0 18 18" version="1.1" xmlns="http://www.w3.org/2000/svg" xmlns:xlink="http://www.w3.org/1999/xlink">
    <!-- Generator: Sketch 59.1 (86144) - https://sketch.com -->
    <title>Calendar_Icon</title>
    <desc>Created with Sketch.</desc>
    <g id="Page-1" stroke="none" stroke-width="1" fill="none" fill-rule="evenodd">
        <g id="Artboard" transform="translate(-370.000000, -219.000000)" fill="#00BCD4" fill-rule="nonzero">
            <g id="small-calendar" transform="translate(372.000000, 221.000000)">
                <path d="M12.833625,1.3125 L10.9375,1.3125 L10.9375,0.4375 C10.9375,0.1955625 10.7419375,0 10.5,0 C10.2580625,0 10.0625,0.1955625 10.0625,0.4375 L10.0625,1.3125 L7.4375,1.3125 L7.4375,0.4375 C7.4375,0.1955625 7.2415,0 7,0 C6.7585,0 6.5625,0.1955625 6.5625,0.4375 L6.5625,1.3125 L3.9375,1.3125 L3.9375,0.4375 C3.9375,0.1955625 3.7415,0 3.5,0 C3.2585,0 3.0625,0.1955625 3.0625,0.4375 L3.0625,1.3125 L1.1668125,1.3125 C0.522375,1.3125 0,1.8344375 0,2.478875 L0,12.8331875 C0,13.477625 0.522375,14 1.1668125,14 L12.833625,14 C13.4780625,14 14,13.477625 14,12.8331875 L14,2.478875 C14,1.8344375 13.4780625,1.3125 12.833625,1.3125 Z M13.125,12.8331875 C13.125,12.9941875 12.9941875,13.125 12.833625,13.125 L1.1668125,13.125 C1.0058125,13.125 0.875,12.9941875 0.875,12.8331875 L0.875,2.478875 C0.875,2.3183125 1.0058125,2.1875 1.1668125,2.1875 L3.0625,2.1875 L3.0625,3.0625 C3.0625,3.3044375 3.2585,3.5 3.5,3.5 C3.7415,3.5 3.9375,3.3044375 3.9375,3.0625 L3.9375,2.1875 L6.5625,2.1875 L6.5625,3.0625 C6.5625,3.3044375 6.7585,3.5 7,3.5 C7.2415,3.5 7.4375,3.3044375 7.4375,3.0625 L7.4375,2.1875 L10.0625,2.1875 L10.0625,3.0625 C10.0625,3.3044375 10.2580625,3.5 10.5,3.5 C10.7419375,3.5 10.9375,3.3044375 10.9375,3.0625 L10.9375,2.1875 L12.833625,2.1875 C12.9941875,2.1875 13.125,2.3183125 13.125,2.478875 L13.125,12.8331875 Z" id="Shape"></path>
                <rect id="Rectangle" x="3.0625" y="5.25" width="1.75" height="1.3125"></rect>
                <rect id="Rectangle" x="3.0625" y="7.4375" width="1.75" height="1.3125"></rect>
                <rect id="Rectangle" x="3.0625" y="9.625" width="1.75" height="1.3125"></rect>
                <rect id="Rectangle" x="6.125" y="9.625" width="1.75" height="1.3125"></rect>
                <rect id="Rectangle" x="6.125" y="7.4375" width="1.75" height="1.3125"></rect>
                <rect id="Rectangle" x="6.125" y="5.25" width="1.75" height="1.3125"></rect>
                <rect id="Rectangle" x="9.1875" y="9.625" width="1.75" height="1.3125"></rect>
                <rect id="Rectangle" x="9.1875" y="7.4375" width="1.75" height="1.3125"></rect>
                <rect id="Rectangle" x="9.1875" y="5.25" width="1.75" height="1.3125"></rect>
            </g>
        </g>
    </g>
</svg>