<?xml version="1.0" encoding="UTF-8"?>
<svg width="18px" height="18px" viewBox="0 0 18 18" version="1.1" xmlns="http://www.w3.org/2000/svg" xmlns:xlink="http://www.w3.org/1999/xlink">
    <!-- Generator: Sketch 59.1 (86144) - https://sketch.com -->
    <title>Location_Icon</title>
    <desc>Created with Sketch.</desc>
    <g id="Page-1" stroke="none" stroke-width="1" fill="none" fill-rule="evenodd" fill-opacity="0">
        <g id="Artboard" transform="translate(-369.000000, -249.000000)" fill="#00BCD4" fill-rule="nonzero" stroke="#00BCD4">
            <g id="location-sign" transform="translate(373.000000, 251.000000)">
                <path d="M4.87344949,0 C2.19655051,0 0.0187727273,2.17809596 0.0187727273,4.85506566 C0.0187727273,7.43187879 4.42350505,13.4522323 4.61105556,13.7071667 L4.78609091,13.9453788 C4.80656061,13.9733788 4.83915657,13.9897475 4.87344949,13.9897475 C4.90827273,13.9897475 4.94065657,13.9733788 4.96133838,13.9453788 L5.13626768,13.7071667 C5.32392424,13.4522323 9.72855051,7.43187879 9.72855051,4.85506566 C9.72855051,2.17809596 7.55041919,0 4.87344949,0 Z M4.87344949,3.1159899 C5.83259091,3.1159899 6.61252525,3.8959596 6.61252525,4.85506566 C6.61252525,5.81367677 5.83255556,6.59414141 4.87344949,6.59414141 C3.91487374,6.59414141 3.13437374,5.81367677 3.13437374,4.85506566 C3.13437374,3.8959596 3.91483838,3.1159899 4.87344949,3.1159899 Z" id="Shape"></path>
            </g>
        </g>
    </g>
</svg>